<svg width="24" height="25" viewBox="0 0 24 25" fill="none" xmlns="http://www.w3.org/2000/svg">
<circle cx="12" cy="12.3652" r="11.7143" fill="#19191C" stroke="white" stroke-width="0.571429"/>
<path d="M12.0063 9.30277C11.9008 9.30277 11.7964 9.30817 11.6936 9.31872C11.5907 9.32927 11.4893 9.34491 11.3896 9.36543C11.29 9.38596 11.192 9.41138 11.0961 9.44138L10.8144 9.54498L10.5463 9.67469L10.2933 9.82894L10.0568 10.0061L9.83866 10.2046L9.64029 10.423L9.46326 10.6596L9.3091 10.9129L9.17954 11.1812C9.1406 11.273 9.10596 11.367 9.07597 11.4631C9.04599 11.5591 9.02062 11.6572 9.00009 11.7569C8.97956 11.8567 8.96395 11.9582 8.95338 12.0611C8.94281 12.1641 8.9375 12.2685 8.9375 12.3741C8.9375 12.4797 8.94288 12.5842 8.95338 12.6871C8.96381 12.7892 8.9794 12.8908 9.00009 12.9913C9.02062 13.0915 9.04599 13.1891 9.07597 13.2852C9.10596 13.3812 9.14056 13.4753 9.17954 13.5671L9.3091 13.8354L9.46326 14.0886L9.64029 14.3253L9.83866 14.5436L10.0568 14.7422L10.2933 14.9193L10.5463 15.0736L10.8144 15.2033L11.0961 15.3069L11.3896 15.3828C11.4901 15.4035 11.5915 15.4192 11.6936 15.4296C11.7975 15.4402 11.9019 15.4455 12.0063 15.4455C12.1118 15.4455 12.2162 15.4401 12.319 15.4296C12.421 15.4192 12.5225 15.4035 12.623 15.3828L12.9165 15.3069L13.1982 15.2033L13.4663 15.0736L13.7194 14.9193L13.9558 14.7422L14.174 14.5436L14.3724 14.3253L14.5494 14.0886L14.7036 13.8354L14.8331 13.5671L14.9367 13.2852C14.9667 13.1891 14.9921 13.0911 15.0126 12.9913L15.0593 12.6871C15.0698 12.5841 15.0752 12.4797 15.0752 12.3741C15.0752 12.2685 15.0698 12.164 15.0593 12.0611C15.0489 11.959 15.0333 11.8574 15.0126 11.7569C14.9921 11.6568 14.9667 11.5591 14.9367 11.4631L14.8331 11.1811L14.7036 10.9128L14.5494 10.6596L14.3724 10.423L14.174 10.2046L13.9558 10.0061L13.7194 9.8289L13.4663 9.67466L13.1982 9.54494L12.9165 9.44134L12.623 9.3654L12.319 9.31868C12.2151 9.30805 12.1108 9.30273 12.0063 9.30273V9.30277ZM12.0063 10.3629C12.0761 10.3629 12.1449 10.3664 12.2128 10.3732L12.4127 10.4035L12.6058 10.4528L12.7907 10.5201L12.9665 10.6044L13.1318 10.7048L13.2863 10.8202L13.4288 10.9497L13.5582 11.0922L13.6735 11.2469L13.7738 11.4128L13.858 11.5888C13.8833 11.649 13.9057 11.7107 13.9252 11.7739C13.9448 11.837 13.9612 11.9015 13.9744 11.9672C13.9877 12.0329 13.9975 12.0998 14.0047 12.1677L14.015 12.3743C14.015 12.4441 14.0115 12.5131 14.0047 12.581C13.9979 12.6489 13.9878 12.7158 13.9744 12.7815C13.9611 12.8471 13.9447 12.9116 13.9252 12.9748L13.858 13.1599L13.7738 13.3359L13.6735 13.5017L13.5582 13.6564L13.4288 13.799L13.2863 13.9285L13.1318 14.0439L12.9665 14.1442L12.7907 14.2286L12.6058 14.2958L12.4127 14.3451L12.2128 14.3754C12.1441 14.3823 12.0752 14.3857 12.0063 14.3857C11.9373 14.3857 11.8684 14.3823 11.7998 14.3754L11.5998 14.3451C11.5342 14.3318 11.4698 14.3153 11.4067 14.2958L11.2218 14.2286L11.046 14.1442L10.8807 14.0439L10.7261 13.9285L10.5837 13.799L10.4543 13.6564L10.339 13.5017L10.2387 13.3359L10.1545 13.1599L10.0872 12.9748L10.038 12.7815L10.0078 12.581C10.0009 12.5123 9.99746 12.4433 9.99747 12.3743C9.99746 12.3053 10.0009 12.2363 10.0078 12.1677C10.0146 12.0998 10.0247 12.0329 10.038 11.9672C10.0512 11.902 10.0677 11.8375 10.0873 11.7739L10.1546 11.5888L10.2387 11.4128L10.339 11.247L10.4543 11.0923L10.5837 10.9497L10.7262 10.8202L10.8807 10.7048L11.046 10.6045L11.2218 10.5201C11.2823 10.4947 11.3441 10.4722 11.4068 10.4529L11.5999 10.4036C11.6655 10.3902 11.7324 10.3801 11.7998 10.3732C11.8685 10.3664 11.9374 10.3629 12.0064 10.3629L12.0063 10.3629Z" fill="white"/>
<path d="M15.1996 8.42969C15.1752 8.42969 15.1508 8.43093 15.1266 8.43338C15.1024 8.43584 15.0782 8.43952 15.0544 8.4444C15.0305 8.44928 15.0069 8.45536 14.9836 8.46262C14.9603 8.46988 14.9374 8.47831 14.915 8.48788C14.8925 8.49746 14.8706 8.50817 14.8492 8.51996C14.8278 8.53173 14.807 8.54457 14.7869 8.55844C14.7668 8.57232 14.7474 8.5872 14.7287 8.60304C14.7101 8.61885 14.6923 8.6356 14.6753 8.65322C14.6583 8.67084 14.6422 8.68931 14.6271 8.70856C14.612 8.72781 14.5978 8.74781 14.5846 8.76849C14.5715 8.78915 14.5593 8.81046 14.5483 8.83234C14.5372 8.85424 14.5273 8.87668 14.5184 8.89959C14.5096 8.92249 14.5019 8.94582 14.4954 8.96949C14.4889 8.99316 14.4835 9.01714 14.4794 9.04135C14.4753 9.06556 14.4723 9.08995 14.4706 9.11445C14.4694 9.13181 14.4688 9.1492 14.4688 9.1666C14.4687 9.19118 14.47 9.21574 14.4724 9.2402C14.4748 9.26464 14.4785 9.28895 14.4833 9.31303C14.4882 9.3371 14.4942 9.36092 14.5014 9.38439C14.5086 9.40787 14.517 9.43096 14.5265 9.4536C14.5359 9.47624 14.5466 9.49839 14.5582 9.51996C14.5699 9.54152 14.5827 9.56249 14.5964 9.58277C14.6102 9.60304 14.6249 9.6226 14.6406 9.64139C14.6563 9.66019 14.6729 9.67818 14.6904 9.69531C14.7079 9.71242 14.7262 9.72864 14.7453 9.74391C14.7644 9.75919 14.7842 9.7735 14.8047 9.78678C14.8253 9.80006 14.8464 9.81229 14.8681 9.82344C14.8899 9.83459 14.9121 9.84464 14.9348 9.85356C14.9575 9.86246 14.9806 9.87021 15.0041 9.87678C15.0276 9.88334 15.0514 9.88871 15.0754 9.89288C15.0994 9.89706 15.1236 9.90003 15.1479 9.90178C15.1651 9.90301 15.1824 9.90362 15.1996 9.90362C15.224 9.90363 15.2483 9.90241 15.2726 9.89997C15.2968 9.89751 15.3209 9.89383 15.3448 9.88895C15.3687 9.88407 15.3923 9.87799 15.4156 9.87073C15.4389 9.86347 15.4618 9.85504 15.4842 9.84547C15.5066 9.8359 15.5286 9.82521 15.55 9.81343C15.5714 9.80164 15.5922 9.78879 15.6123 9.77491C15.6324 9.76105 15.6518 9.74618 15.6704 9.73035C15.6891 9.71452 15.7069 9.69776 15.7239 9.68013C15.7408 9.66251 15.7569 9.64404 15.7721 9.62479C15.7872 9.60554 15.8014 9.58554 15.8146 9.56486C15.8277 9.54419 15.8398 9.52286 15.8509 9.50097C15.8619 9.47907 15.8719 9.45663 15.8808 9.43373C15.8896 9.41083 15.8973 9.3875 15.9038 9.36382C15.9103 9.34015 15.9156 9.31617 15.9198 9.29196C15.9239 9.26776 15.9269 9.24336 15.9286 9.21886C15.9298 9.20151 15.9304 9.18411 15.9304 9.16671C15.9304 9.14215 15.9292 9.1176 15.9268 9.09315C15.9243 9.06871 15.9207 9.0444 15.9159 9.02033C15.911 8.99625 15.905 8.97243 15.8978 8.94896C15.8906 8.92548 15.8822 8.90239 15.8727 8.87975C15.8632 8.85711 15.8526 8.83496 15.8409 8.81339C15.8292 8.79183 15.8165 8.77086 15.8027 8.75058C15.789 8.7303 15.7742 8.71072 15.7585 8.69192C15.7428 8.67313 15.7262 8.65513 15.7088 8.638C15.6913 8.62089 15.6729 8.60467 15.6539 8.5894C15.6348 8.57414 15.6149 8.55984 15.5944 8.54658C15.5739 8.5333 15.5528 8.52106 15.531 8.50991C15.5093 8.49876 15.4871 8.48871 15.4644 8.47979C15.4417 8.47089 15.4185 8.46314 15.3951 8.45657C15.3716 8.45 15.3478 8.44461 15.3238 8.44043C15.2998 8.43626 15.2756 8.43331 15.2513 8.43157C15.2341 8.43034 15.2168 8.42973 15.1996 8.42973V8.42969Z" fill="white"/>
<path d="M11.4233 6.36535C11.0895 6.36481 10.7917 6.36619 10.5241 6.36997L9.80674 6.38922C9.59423 6.39847 9.40647 6.41052 9.23793 6.42612C9.15366 6.4339 9.07416 6.4426 8.99881 6.45219C8.92711 6.46125 8.8556 6.47179 8.78433 6.48381C8.71648 6.49537 8.65208 6.50784 8.59034 6.5214C8.5286 6.53496 8.46963 6.54959 8.41273 6.56531C8.35711 6.58067 8.30192 6.59757 8.24723 6.61599C8.19364 6.63409 8.14136 6.65327 8.08973 6.67376C7.98647 6.71474 7.88575 6.76072 7.78202 6.81225C7.70221 6.85192 7.62848 6.89209 7.55843 6.93461C7.48839 6.97713 7.42204 7.02203 7.35707 7.07095C7.29016 7.12156 7.22567 7.17531 7.16381 7.23201C7.09915 7.29101 7.0331 7.3559 6.96448 7.42842C6.87825 7.51905 6.80332 7.60354 6.73681 7.68646C6.70356 7.7279 6.67242 7.76888 6.64309 7.81009C6.61408 7.8507 6.58635 7.89221 6.55993 7.93456C6.53379 7.97654 6.50903 8.01929 6.48535 8.06327C6.4613 8.10801 6.43857 8.15345 6.41719 8.19953C6.37344 8.29366 6.33262 8.39503 6.29187 8.50818C6.26163 8.59183 6.23456 8.67659 6.21071 8.76229C6.18638 8.84987 6.16473 8.94149 6.14543 9.04058C6.12613 9.13968 6.1093 9.24624 6.09449 9.3641C6.07855 9.49328 6.0658 9.62284 6.05628 9.75265C6.04552 9.89538 6.0366 10.0524 6.02929 10.2273L6.01199 10.8085L6.00269 11.517L6 12.3734L6.00788 13.6188L6.03248 14.5624L6.05144 14.931L6.07512 15.2364C6.08271 15.3187 6.09221 15.4008 6.10361 15.4827C6.11399 15.5554 6.12513 15.6191 6.13713 15.6741C6.16147 15.7861 6.19025 15.8971 6.2234 16.0067C6.25514 16.1117 6.29144 16.2153 6.33219 16.3171C6.37225 16.4169 6.41608 16.5131 6.46375 16.6057C6.51142 16.6983 6.56293 16.7872 6.61829 16.8727C6.67365 16.9582 6.73285 17.0401 6.79606 17.1186C6.85919 17.197 6.92633 17.2721 6.99723 17.3436C7.06824 17.4153 7.14313 17.4834 7.22205 17.5482C7.30191 17.6137 7.38492 17.6753 7.47078 17.7327C7.55048 17.7861 7.62933 17.8349 7.70875 17.8798C7.78817 17.9247 7.86829 17.9654 7.95064 18.0024C8.03298 18.0394 8.11741 18.0727 8.2056 18.1027C8.29379 18.1327 8.38567 18.1593 8.48278 18.183C8.57989 18.2066 8.68268 18.2274 8.79148 18.2455C8.90028 18.2636 9.01657 18.2791 9.14082 18.2924C9.26507 18.3058 9.39762 18.3169 9.54006 18.3261C9.68249 18.3353 9.83473 18.3427 9.99831 18.3487C10.251 18.3578 10.6335 18.3632 11.0746 18.3652L12.5026 18.3623L13.8548 18.3434L14.369 18.3289L14.7039 18.3116C14.7758 18.3058 14.8462 18.2988 14.9141 18.2907C14.982 18.2826 15.0489 18.2733 15.1141 18.2627C15.1793 18.2522 15.2431 18.2404 15.3057 18.2273C15.3676 18.2144 15.4292 18.2 15.4904 18.1841C15.551 18.1687 15.6107 18.1511 15.6698 18.1325C15.729 18.1139 15.7875 18.0938 15.8456 18.0723C15.9041 18.0506 15.9621 18.0274 16.0195 18.0029C16.0773 17.9783 16.135 17.9519 16.1929 17.924C16.2818 17.881 16.3534 17.8453 16.4162 17.8103C16.4754 17.7778 16.5323 17.7415 16.5867 17.7016C16.6404 17.662 16.6937 17.6169 16.7552 17.5602C16.8167 17.5034 16.8864 17.435 16.9727 17.3485C17.0486 17.2725 17.1126 17.2065 17.1677 17.1465C17.2229 17.0864 17.2694 17.0324 17.3101 16.9803C17.349 16.9309 17.3852 16.8795 17.4185 16.8262C17.4511 16.7742 17.4811 16.7202 17.5116 16.6603C17.5576 16.5702 17.5985 16.4868 17.6352 16.4062C17.6707 16.3286 17.7032 16.2496 17.7326 16.1694C17.7615 16.0899 17.7865 16.009 17.8076 15.927C17.8293 15.8427 17.848 15.7536 17.8641 15.6559C17.8802 15.5583 17.8939 15.452 17.9057 15.3333C17.9176 15.2146 17.9276 15.0834 17.9365 14.936L17.9599 14.4412L17.9801 13.8259L17.9945 13.1404L18 12.4236L17.9872 11.0157L17.97 10.3852L17.9465 9.84374L17.9173 9.42163C17.9067 9.30417 17.8952 9.21166 17.8831 9.14911C17.8697 9.08001 17.8546 9.01122 17.838 8.9428C17.8219 8.87623 17.8041 8.81005 17.7848 8.74434C17.7659 8.68032 17.7455 8.61679 17.7234 8.55382C17.7015 8.49162 17.6784 8.43073 17.6542 8.37115C17.6299 8.31157 17.6037 8.25338 17.5764 8.19642C17.5491 8.13945 17.5205 8.08388 17.4905 8.02958C17.4605 7.97527 17.4292 7.92232 17.3965 7.87067C17.3638 7.81902 17.3297 7.76869 17.2942 7.7197C17.2589 7.67087 17.2221 7.62315 17.1839 7.57662C17.1458 7.53035 17.1063 7.48529 17.0654 7.44152C17.0245 7.3978 16.9823 7.35539 16.9388 7.31435C16.8952 7.27329 16.8504 7.23355 16.8041 7.19511C16.7576 7.15655 16.71 7.11944 16.6612 7.08385C16.612 7.04789 16.5616 7.01344 16.5102 6.98056C16.4582 6.9472 16.4051 6.9154 16.3511 6.8852C16.2962 6.85449 16.2405 6.82536 16.1839 6.79785C16.09 6.75213 16.0032 6.71158 15.918 6.67561C15.8342 6.63991 15.7488 6.6082 15.662 6.5806C15.5748 6.55306 15.4839 6.52945 15.384 6.50908C15.284 6.4887 15.175 6.47172 15.0517 6.45728C14.9283 6.44283 14.7906 6.43117 14.633 6.42146C14.4755 6.41175 14.2983 6.40413 14.096 6.39797L13.4083 6.38256L12.5381 6.37228L11.4237 6.36542L11.4233 6.36535ZM12.0021 7.42453L13.6091 7.4337L14.2154 7.44541C14.3824 7.45011 14.5098 7.45561 14.5845 7.46197C14.6817 7.47017 14.7744 7.48046 14.863 7.49278C14.948 7.50454 15.0327 7.51917 15.1167 7.53665C15.1974 7.55359 15.2745 7.57285 15.3481 7.59457C15.4218 7.61629 15.4922 7.64063 15.5598 7.66755C15.6273 7.69447 15.6919 7.72409 15.7541 7.75652C15.8157 7.7887 15.8757 7.82412 15.9336 7.86262C15.9913 7.90094 16.0469 7.94223 16.1008 7.98671C16.1548 8.03119 16.2071 8.07887 16.2582 8.12986C16.3122 8.18367 16.3619 8.23847 16.4078 8.29501C16.4535 8.35119 16.4957 8.41009 16.5344 8.47136C16.5734 8.53351 16.6086 8.59801 16.6398 8.6645C16.6716 8.73229 16.7002 8.80392 16.7259 8.88006C16.7516 8.9562 16.7745 9.03712 16.7947 9.12358C16.8159 9.21525 16.8337 9.30768 16.848 9.40068C16.8634 9.49928 16.8765 9.60442 16.8877 9.71699C16.8988 9.82956 16.908 9.94961 16.9157 10.0781C16.9217 10.1811 16.927 10.317 16.9315 10.4776L16.9428 11.0251L16.9514 12.3661L16.9416 13.7058L16.9298 14.2517L16.9137 14.6488C16.9024 14.8347 16.8906 14.9909 16.8764 15.127C16.8693 15.195 16.8616 15.2579 16.8531 15.317C16.8451 15.3727 16.8356 15.4283 16.8247 15.4836C16.8147 15.534 16.8031 15.5841 16.7899 15.6338C16.7773 15.6812 16.763 15.7282 16.7473 15.7746C16.7314 15.8213 16.7141 15.8675 16.6954 15.9131C16.6757 15.9613 16.6548 16.009 16.6329 16.0563C16.6134 16.0984 16.593 16.1394 16.5713 16.1794C16.5498 16.2189 16.5271 16.2577 16.503 16.2957C16.4792 16.3333 16.4542 16.3699 16.428 16.4053C16.402 16.4405 16.3748 16.4749 16.3463 16.5082C16.3179 16.5413 16.2883 16.5735 16.2576 16.6045C16.2269 16.6355 16.1949 16.6654 16.1619 16.6943C16.1288 16.7231 16.0945 16.7509 16.0591 16.7776C16.0236 16.8043 15.9869 16.83 15.9489 16.8546C15.911 16.8791 15.8718 16.9027 15.8314 16.9252C15.791 16.9477 15.7493 16.9692 15.7065 16.9896C15.6629 17.0104 15.6187 17.0298 15.5739 17.0479C15.5276 17.0666 15.4808 17.084 15.4336 17.1001C15.3375 17.1329 15.2361 17.1617 15.1294 17.1866C15.0181 17.2123 14.9059 17.2334 14.7929 17.2497C14.7495 17.256 14.6496 17.262 14.5066 17.2675L13.9616 17.2827L12.4166 17.3028L10.7994 17.3054L10.1643 17.2986L9.75192 17.2857L9.44783 17.2643C9.35341 17.2563 9.26561 17.2475 9.18334 17.2374C9.10107 17.2274 9.02445 17.2162 8.95237 17.2035C8.88406 17.1917 8.81617 17.1776 8.74881 17.1612C8.68739 17.1462 8.6266 17.1287 8.56658 17.1089C8.50873 17.0896 8.45341 17.0684 8.39958 17.0451C8.34576 17.0218 8.29348 16.9963 8.2417 16.9684C8.18991 16.9405 8.13867 16.9102 8.08684 16.8772C8.04775 16.8524 8.00996 16.8272 7.97359 16.8005C7.93722 16.7738 7.90208 16.7472 7.86825 16.7193C7.83442 16.6914 7.80194 16.6627 7.77061 16.6331C7.73948 16.6037 7.70943 16.5731 7.68049 16.5415C7.65166 16.51 7.6241 16.4776 7.59765 16.444C7.5711 16.4103 7.54579 16.3756 7.5218 16.34C7.49744 16.3039 7.4744 16.2669 7.45271 16.2291C7.4308 16.191 7.40996 16.1515 7.39017 16.1109C7.37004 16.0694 7.35125 16.0273 7.33385 15.9847C7.31616 15.9412 7.2994 15.8964 7.28364 15.8501C7.25211 15.7575 7.22443 15.6589 7.20037 15.5537C7.1763 15.4486 7.15577 15.3369 7.1384 15.2179C7.12102 15.0989 7.10703 14.9727 7.09588 14.8386C7.08765 14.7398 7.08112 14.586 7.07612 14.3919L7.06566 13.7015L7.06951 11.9417L7.09976 10.26L7.12283 9.66754L7.1359 9.4717C7.14044 9.4194 7.14513 9.38066 7.14993 9.35739C7.16577 9.28087 7.18172 9.20966 7.19822 9.14299C7.21362 9.0801 7.23076 9.01764 7.24962 8.9557C7.26753 8.89724 7.28641 8.84247 7.30659 8.7906C7.32605 8.74034 7.34774 8.69098 7.3716 8.64267C7.39489 8.59568 7.41992 8.5507 7.4471 8.50691C7.47428 8.46312 7.50361 8.42064 7.5356 8.37839C7.56758 8.33614 7.60203 8.29443 7.63951 8.25214C7.677 8.20986 7.71748 8.16715 7.76138 8.12312C7.81255 8.07157 7.86582 8.02217 7.92107 7.97504C7.97325 7.93058 8.02765 7.88881 8.08408 7.84991C8.13955 7.8114 8.19645 7.77712 8.25569 7.74562C8.31493 7.71411 8.37652 7.68565 8.4413 7.66004C8.50607 7.63443 8.57412 7.61152 8.6462 7.59072C8.72193 7.56944 8.7985 7.55128 8.87571 7.5363C8.9569 7.52036 9.04313 7.50645 9.13521 7.49432C9.22728 7.48219 9.32523 7.47171 9.42996 7.46262C9.503 7.45631 9.62886 7.45068 9.7946 7.44595L10.3978 7.43401L12.0023 7.42419L12.0021 7.42453Z" fill="white"/>
</svg>
